# xmcd
#
# Track frame offsets: 
#        150
#        19586
#        38546
#        56716
#        73932
#        90854
#        112442
#        134691
#        156796
#        175138
#        193695
#        210615
#
# Disc length: 3062 seconds
#
# Revision: 1
# Processed by: cddbd v1.4PL0 Copyright (c) Steve Scherf et al.
# Submitted via: ExactAudioCopy v0.95a3
#
DISCID=a90bf40c
DTITLE=周彥宏 - 當愛情經過的時候
DYEAR=2003
DGENRE=Pop
TTITLE0=愛之旅 
TTITLE1=當愛情經過的時候
TTITLE2=親愛的你
TTITLE3=快樂簡單
TTITLE4=給愛
TTITLE5=夏日的最後一朵玫瑰
TTITLE6=眼淚\不聽話
TTITLE7=千百個夢堨都是你
TTITLE8=看海
TTITLE9=春暖花開 (Mixing 版)
TTITLE10=給愛 (男聲: 周笛)
TTITLE11=當愛情經過的時候 (MMO)
EXTD=
EXTT0=
EXTT1=
EXTT2=
EXTT3=
EXTT4=
EXTT5=
EXTT6=
EXTT7=
EXTT8=
EXTT9=
EXTT10=
EXTT11=
PLAYORDER=
